<?xml version="1.0" encoding="UTF-8"?>
<svg id="Layer_1" data-name="Layer 1" xmlns="http://www.w3.org/2000/svg" xmlns:xlink="http://www.w3.org/1999/xlink" viewBox="0 0 2005.46 883.28">
  <defs>
    <style>
      .cls-1 {
        fill: url(#Degradado_sin_nombre_66);
      }

      .cls-1, .cls-2, .cls-3, .cls-4, .cls-5, .cls-6, .cls-7, .cls-8, .cls-9, .cls-10, .cls-11, .cls-12, .cls-13, .cls-14, .cls-15, .cls-16 {
        stroke-width: 0px;
      }

      .cls-2 {
        fill: url(#Degradado_sin_nombre_66-8);
      }

      .cls-3 {
        fill: url(#Degradado_sin_nombre_66-9);
      }

      .cls-4 {
        fill: url(#Degradado_sin_nombre_66-6);
      }

      .cls-5 {
        fill: url(#Degradado_sin_nombre_66-5);
      }

      .cls-6 {
        fill: url(#Degradado_sin_nombre_66-2);
      }

      .cls-7 {
        fill: url(#Degradado_sin_nombre_66-3);
      }

      .cls-8 {
        fill: url(#Degradado_sin_nombre_66-7);
      }

      .cls-9 {
        fill: url(#Degradado_sin_nombre_66-4);
      }

      .cls-10 {
        fill: url(#Degradado_sin_nombre_66-13);
      }

      .cls-11 {
        fill: url(#Degradado_sin_nombre_66-15);
      }

      .cls-12 {
        fill: url(#Degradado_sin_nombre_66-14);
      }

      .cls-13 {
        fill: url(#Degradado_sin_nombre_66-12);
      }

      .cls-14 {
        fill: url(#Degradado_sin_nombre_66-11);
      }

      .cls-15 {
        fill: url(#Degradado_sin_nombre_66-10);
      }
    </style>
    <linearGradient id="Degradado_sin_nombre_66" data-name="Degradado sin nombre 66" x1="520.43" y1="679.24" x2="520.43" y2="81.5" gradientUnits="userSpaceOnUse">
      <stop offset="0" stop-color="#ffa8b8"/>
      <stop offset=".51" stop-color="#e5bedd"/>
      <stop offset="1" stop-color="#bccef4"/>
    </linearGradient>
    <linearGradient id="Degradado_sin_nombre_66-2" data-name="Degradado sin nombre 66" x1="14.98" x2="14.98" y2="81.5" xlink:href="#Degradado_sin_nombre_66"/>
    <linearGradient id="Degradado_sin_nombre_66-3" data-name="Degradado sin nombre 66" x1="296.96" y1="679.24" x2="296.96" y2="81.5" xlink:href="#Degradado_sin_nombre_66"/>
    <linearGradient id="Degradado_sin_nombre_66-4" data-name="Degradado sin nombre 66" x1="77.19" y1="679.24" x2="77.19" y2="81.5" xlink:href="#Degradado_sin_nombre_66"/>
    <linearGradient id="Degradado_sin_nombre_66-5" data-name="Degradado sin nombre 66" x1="91.15" y1="679.24" x2="91.15" y2="81.5" xlink:href="#Degradado_sin_nombre_66"/>
    <linearGradient id="Degradado_sin_nombre_66-6" data-name="Degradado sin nombre 66" x1="125.34" y1="679.24" x2="125.34" y2="81.5" xlink:href="#Degradado_sin_nombre_66"/>
    <linearGradient id="Degradado_sin_nombre_66-7" data-name="Degradado sin nombre 66" x1="20.15" y1="679.24" x2="20.15" y2="81.5" xlink:href="#Degradado_sin_nombre_66"/>
    <linearGradient id="Degradado_sin_nombre_66-8" data-name="Degradado sin nombre 66" x1="285.31" y1="679.24" x2="285.31" y2="81.5" xlink:href="#Degradado_sin_nombre_66"/>
    <linearGradient id="Degradado_sin_nombre_66-9" data-name="Degradado sin nombre 66" x1="352.37" y1="679.24" x2="352.37" y2="81.5" xlink:href="#Degradado_sin_nombre_66"/>
    <linearGradient id="Degradado_sin_nombre_66-10" data-name="Degradado sin nombre 66" x1="410.65" y1="679.24" x2="410.65" y2="81.5" xlink:href="#Degradado_sin_nombre_66"/>
    <linearGradient id="Degradado_sin_nombre_66-11" data-name="Degradado sin nombre 66" x1="151.4" y1="679.24" x2="151.4" y2="81.5" xlink:href="#Degradado_sin_nombre_66"/>
    <linearGradient id="Degradado_sin_nombre_66-12" data-name="Degradado sin nombre 66" x1="216.82" y1="679.24" x2="216.82" y2="81.5" xlink:href="#Degradado_sin_nombre_66"/>
    <linearGradient id="Degradado_sin_nombre_66-13" data-name="Degradado sin nombre 66" x1="235.11" y1="679.24" x2="235.11" y2="81.5" xlink:href="#Degradado_sin_nombre_66"/>
    <linearGradient id="Degradado_sin_nombre_66-14" data-name="Degradado sin nombre 66" x1="251.01" y1="679.24" x2="251.01" y2="81.5" xlink:href="#Degradado_sin_nombre_66"/>
    <linearGradient id="Degradado_sin_nombre_66-15" data-name="Degradado sin nombre 66" x1="212.66" y1="679.24" x2="212.66" y2="81.5" xlink:href="#Degradado_sin_nombre_66"/>
  </defs>
  <g>
    <path class="cls-16" d="m940.15,609.35c-27.06,0-49.66-4.81-67.82-14.42-18.16-9.61-31.87-24.47-41.12-44.59-9.26-20.11-14.42-46.19-15.49-78.23l81.7-12.28c.35,18.51,2.04,33.47,5.07,44.86,3.02,11.4,7.29,19.58,12.82,24.56,5.52,4.99,12.19,7.48,20.03,7.48,9.96,0,16.46-3.38,19.49-10.15,3.02-6.76,4.54-13.88,4.54-21.36,0-17.8-4.27-32.84-12.82-45.12s-20.12-24.65-34.71-37.11l-37.38-32.57c-16.38-13.88-30.17-29.64-41.38-47.26s-16.82-39.42-16.82-65.42c0-36.66,10.86-64.7,32.57-84.1,21.71-19.4,51.26-29.1,88.64-29.1,23.14,0,41.74,3.92,55.8,11.75,14.06,7.83,24.74,18.07,32.04,30.71,7.29,12.64,12.28,25.99,14.95,40.05,2.67,14.07,4.18,27.5,4.54,40.32l-82.24,10.15c-.36-12.82-1.16-23.94-2.4-33.38-1.25-9.43-3.83-16.73-7.74-21.89-3.92-5.16-9.97-7.74-18.16-7.74-8.9,0-15.4,3.74-19.49,11.21-4.1,7.48-6.14,14.95-6.14,22.43,0,16.02,3.82,29.1,11.48,39.25,7.65,10.15,17.71,20.74,30.17,31.77l35.78,31.51c18.87,16.02,34.79,34.18,47.79,54.47,12.99,20.29,19.49,45.39,19.49,75.29,0,20.29-4.63,38.71-13.88,55.27-9.26,16.55-22.34,29.64-39.25,39.25-16.91,9.61-36.94,14.42-60.08,14.42Z"/>
    <path class="cls-16" d="m1083.79,602.94v-82.24h82.24v82.24h-82.24Z"/>
    <path class="cls-16" d="m1336.37,609.35c-27.06,0-49.66-4.81-67.82-14.42-18.16-9.61-31.87-24.47-41.12-44.59-9.26-20.11-14.42-46.19-15.49-78.23l81.7-12.28c.35,18.51,2.04,33.47,5.07,44.86,3.02,11.4,7.29,19.58,12.82,24.56,5.52,4.99,12.19,7.48,20.03,7.48,9.96,0,16.46-3.38,19.49-10.15,3.02-6.76,4.54-13.88,4.54-21.36,0-17.8-4.27-32.84-12.82-45.12s-20.12-24.65-34.71-37.11l-37.38-32.57c-16.38-13.88-30.17-29.64-41.38-47.26s-16.82-39.42-16.82-65.42c0-36.66,10.86-64.7,32.57-84.1,21.71-19.4,51.26-29.1,88.64-29.1,23.14,0,41.74,3.92,55.8,11.75,14.06,7.83,24.74,18.07,32.04,30.71,7.29,12.64,12.28,25.99,14.95,40.05,2.67,14.07,4.18,27.5,4.54,40.32l-82.24,10.15c-.36-12.82-1.16-23.94-2.4-33.38-1.25-9.43-3.83-16.73-7.74-21.89-3.92-5.16-9.97-7.74-18.16-7.74-8.9,0-15.4,3.74-19.49,11.21-4.1,7.48-6.14,14.95-6.14,22.43,0,16.02,3.82,29.1,11.48,39.25,7.65,10.15,17.71,20.74,30.17,31.77l35.78,31.51c18.87,16.02,34.79,34.18,47.79,54.47,12.99,20.29,19.49,45.39,19.49,75.29,0,20.29-4.63,38.71-13.88,55.27-9.26,16.55-22.34,29.64-39.25,39.25-16.91,9.61-36.94,14.42-60.08,14.42Z"/>
    <path class="cls-16" d="m1480.02,602.94v-82.24h82.24v82.24h-82.24Z"/>
    <path class="cls-16" d="m1741.67,609.35c-32.4,0-58.03-5.7-76.9-17.09-18.87-11.39-32.4-27.77-40.58-49.13-8.19-21.36-12.28-46.81-12.28-76.36v-160.73c0-29.9,4.09-55.35,12.28-76.36,8.18-21,21.71-37.11,40.58-48.33,18.87-11.21,44.5-16.82,76.9-16.82s58.65,5.61,77.7,16.82c19.04,11.21,32.66,27.33,40.85,48.33,8.19,21.01,12.28,46.46,12.28,76.36v160.73c0,29.55-4.1,55-12.28,76.36-8.19,21.36-21.81,37.74-40.85,49.13-19.05,11.39-44.95,17.09-77.7,17.09Zm0-67.82c9.96,0,17.26-2.49,21.89-7.48,4.62-4.98,7.65-11.39,9.08-19.22,1.42-7.83,2.14-15.84,2.14-24.03v-208.26c0-8.54-.72-16.64-2.14-24.3-1.43-7.65-4.46-13.97-9.08-18.96-4.63-4.98-11.93-7.48-21.89-7.48-9.26,0-16.2,2.5-20.83,7.48-4.63,4.99-7.66,11.31-9.08,18.96-1.43,7.66-2.14,15.75-2.14,24.3v208.26c0,8.19.62,16.2,1.87,24.03,1.24,7.83,4.09,14.24,8.54,19.22,4.45,4.99,11.66,7.48,21.63,7.48Z"/>
    <path class="cls-16" d="m1923.23,602.94v-82.24h82.24v82.24h-82.24Z"/>
    <path class="cls-16" d="m48.48,882.69c-9.1,0-16.67-1.95-22.72-5.85-6.04-3.9-10.63-9.29-13.75-16.19-3.12-6.89-4.94-14.88-5.46-23.98l19.5-5.27c.39,5.59,1.27,10.99,2.63,16.19,1.37,5.2,3.61,9.46,6.73,12.77,3.12,3.31,7.47,4.97,13.06,4.97s10.04-1.59,12.97-4.78c2.92-3.18,4.39-7.77,4.39-13.75,0-7.15-1.63-12.9-4.88-17.26-3.25-4.35-7.35-8.74-12.28-13.16l-26.52-23.4c-5.2-4.55-9.04-9.52-11.5-14.92-2.47-5.39-3.71-12.06-3.71-19.99,0-11.57,3.31-20.54,9.94-26.91,6.63-6.37,15.66-9.56,27.1-9.56,6.24,0,11.73.81,16.48,2.44,4.74,1.63,8.71,4.13,11.9,7.51,3.18,3.38,5.72,7.64,7.6,12.77,1.88,5.14,3.15,11.15,3.8,18.04l-18.72,5.07c-.39-5.2-1.17-9.98-2.34-14.33-1.17-4.35-3.22-7.86-6.14-10.53-2.93-2.66-7.12-4-12.58-4s-9.72,1.46-12.77,4.39c-3.06,2.93-4.58,7.25-4.58,12.97,0,4.81.81,8.78,2.44,11.9,1.62,3.12,4.26,6.31,7.9,9.55l26.72,23.4c5.98,5.2,11.24,11.41,15.79,18.62,4.55,7.21,6.82,15.76,6.82,25.64,0,7.8-1.63,14.53-4.88,20.18-3.25,5.65-7.7,9.98-13.36,12.97-5.65,2.99-12.19,4.49-19.6,4.49Z"/>
    <path class="cls-16" d="m96.84,880.94l33.54-157.95h21.25l33.73,157.95h-20.86l-7.22-39.78h-32.17l-7.6,39.78h-20.67Zm31.2-55.58h26.33l-13.26-71.17-13.07,71.17Z"/>
    <path class="cls-16" d="m203.31,880.94v-157.95h22.03v142.16h40.37v15.79h-62.4Z"/>
    <path class="cls-16" d="m323.43,882.69c-11.44,0-20.22-2.27-26.33-6.83-6.11-4.55-10.27-10.95-12.48-19.21-2.21-8.25-3.31-17.91-3.31-28.96v-104.71h21.06v105.69c0,6.76.45,12.94,1.37,18.52.91,5.59,2.89,10.01,5.95,13.26,3.05,3.25,7.64,4.88,13.75,4.88s10.85-1.62,13.84-4.88c2.99-3.25,4.94-7.67,5.85-13.26.91-5.59,1.37-11.76,1.37-18.52v-105.69h20.86v104.71c0,11.05-1.11,20.7-3.31,28.96-2.21,8.26-6.34,14.66-12.38,19.21-6.04,4.55-14.79,6.83-26.23,6.83Z"/>
    <path class="cls-16" d="m390.51,880.94v-157.95h34.32c11.7,0,20.96,1.79,27.79,5.36,6.82,3.58,11.7,8.94,14.62,16.09,2.92,7.15,4.39,16.06,4.39,26.71v58.11c0,11.18-1.46,20.61-4.39,28.27-2.93,7.67-7.67,13.49-14.23,17.45-6.57,3.97-15.37,5.95-26.42,5.95h-36.07Zm22.03-15.79h12.48c8.06,0,13.78-1.56,17.16-4.68,3.38-3.12,5.43-7.67,6.14-13.65.71-5.98,1.07-13.19,1.07-21.64v-51.29c0-8.19-.52-14.82-1.56-19.89-1.04-5.07-3.32-8.77-6.83-11.11-3.51-2.34-9.04-3.51-16.58-3.51h-11.9v125.78Z"/>
    <path class="cls-16" d="m579.07,882.69c-9.1,0-16.67-1.95-22.72-5.85-6.04-3.9-10.63-9.29-13.75-16.19-3.12-6.89-4.94-14.88-5.46-23.98l19.5-5.27c.39,5.59,1.27,10.99,2.63,16.19,1.37,5.2,3.61,9.46,6.73,12.77,3.12,3.31,7.47,4.97,13.06,4.97s10.04-1.59,12.97-4.78c2.92-3.18,4.39-7.77,4.39-13.75,0-7.15-1.63-12.9-4.88-17.26-3.25-4.35-7.35-8.74-12.28-13.16l-26.52-23.4c-5.2-4.55-9.04-9.52-11.5-14.92-2.47-5.39-3.71-12.06-3.71-19.99,0-11.57,3.31-20.54,9.94-26.91,6.63-6.37,15.66-9.56,27.1-9.56,6.24,0,11.73.81,16.48,2.44,4.74,1.63,8.71,4.13,11.9,7.51,3.18,3.38,5.72,7.64,7.6,12.77,1.88,5.14,3.15,11.15,3.8,18.04l-18.72,5.07c-.39-5.2-1.17-9.98-2.34-14.33-1.17-4.35-3.22-7.86-6.14-10.53-2.93-2.66-7.12-4-12.58-4s-9.72,1.46-12.77,4.39c-3.06,2.93-4.58,7.25-4.58,12.97,0,4.81.81,8.78,2.44,11.9,1.62,3.12,4.26,6.31,7.9,9.55l26.72,23.4c5.98,5.2,11.24,11.41,15.79,18.62,4.55,7.21,6.82,15.76,6.82,25.64,0,7.8-1.63,14.53-4.88,20.18-3.25,5.65-7.7,9.98-13.36,12.97-5.65,2.99-12.19,4.49-19.6,4.49Z"/>
    <path class="cls-16" d="m636.01,880.94v-157.95h61.23v16.38h-39.19v52.26h31.79v15.6h-31.79v57.92h39.58v15.79h-61.62Z"/>
    <path class="cls-16" d="m707.57,880.94l32.96-82.68-32.37-75.27h20.47l23.99,55.77,21.84-55.77h20.47l-33.15,77.03,34.71,80.92h-20.47l-25.74-59.47-22.23,59.47h-20.47Z"/>
    <path class="cls-16" d="m854.02,882.69c-11.44,0-20.22-2.27-26.33-6.83-6.11-4.55-10.27-10.95-12.48-19.21-2.21-8.25-3.32-17.91-3.32-28.96v-104.71h21.06v105.69c0,6.76.45,12.94,1.36,18.52.91,5.59,2.89,10.01,5.95,13.26,3.05,3.25,7.63,4.88,13.75,4.88s10.85-1.62,13.84-4.88c2.99-3.25,4.94-7.67,5.85-13.26.91-5.59,1.36-11.76,1.36-18.52v-105.69h20.87v104.71c0,11.05-1.11,20.7-3.31,28.96-2.21,8.26-6.34,14.66-12.38,19.21-6.04,4.55-14.79,6.83-26.23,6.83Z"/>
    <path class="cls-16" d="m912.52,880.94l33.54-157.95h21.25l33.74,157.95h-20.87l-7.21-39.78h-32.17l-7.61,39.78h-20.67Zm31.2-55.58h26.33l-13.26-71.17-13.06,71.17Z"/>
    <path class="cls-16" d="m1018.98,880.94v-157.95h22.04v142.16h40.36v15.79h-62.4Z"/>
    <path class="cls-16" d="m1189.6,883.28c-11.83,0-21.19-2.08-28.08-6.24-6.89-4.16-11.83-10.14-14.82-17.94-2.99-7.8-4.49-17.09-4.49-27.88v-58.7c0-10.92,1.49-20.21,4.49-27.88,2.99-7.67,7.93-13.55,14.82-17.65,6.89-4.1,16.25-6.14,28.08-6.14s21.42,2.05,28.37,6.14c6.95,4.09,11.93,9.98,14.92,17.65,2.99,7.67,4.48,16.96,4.48,27.88v58.7c0,10.79-1.5,20.08-4.48,27.88-2.99,7.8-7.96,13.78-14.92,17.94-6.96,4.16-16.41,6.24-28.37,6.24Zm0-24.76c3.64,0,6.3-.91,7.99-2.73,1.69-1.82,2.79-4.16,3.32-7.02.52-2.86.78-5.78.78-8.78v-76.05c0-3.12-.26-6.08-.78-8.87-.52-2.79-1.63-5.1-3.32-6.92-1.69-1.82-4.36-2.73-7.99-2.73-3.38,0-5.92.91-7.61,2.73-1.69,1.82-2.8,4.13-3.32,6.92-.52,2.8-.78,5.75-.78,8.87v76.05c0,2.99.23,5.92.68,8.78.45,2.86,1.49,5.2,3.12,7.02,1.62,1.82,4.26,2.73,7.9,2.73Z"/>
    <path class="cls-16" d="m1258.63,880.94v-157.95h53.04c9.49,0,17.29,1.79,23.4,5.36,6.11,3.58,10.66,8.78,13.65,15.6,2.99,6.83,4.49,15.11,4.49,24.86,0,12.22-2.02,21.55-6.04,27.98-4.03,6.44-9.49,10.89-16.38,13.36-6.89,2.47-14.62,3.71-23.21,3.71h-14.04v67.08h-34.91Zm34.91-91.46h11.7c4.29,0,7.54-.78,9.75-2.34,2.21-1.56,3.67-3.9,4.39-7.02.71-3.12,1.07-7.08,1.07-11.89,0-4.03-.29-7.57-.88-10.63-.58-3.05-1.98-5.49-4.19-7.31-2.21-1.82-5.66-2.73-10.33-2.73h-11.5v41.92Z"/>
    <path class="cls-16" d="m1415.22,883.28c-11.83,0-21.19-2.08-28.08-6.24-6.89-4.16-11.83-10.14-14.82-17.94-2.99-7.8-4.49-17.09-4.49-27.88v-58.7c0-10.92,1.49-20.21,4.49-27.88,2.99-7.67,7.93-13.55,14.82-17.65,6.89-4.1,16.25-6.14,28.08-6.14s21.42,2.05,28.37,6.14c6.95,4.09,11.93,9.98,14.92,17.65,2.99,7.67,4.48,16.96,4.48,27.88v58.7c0,10.79-1.5,20.08-4.48,27.88-2.99,7.8-7.96,13.78-14.92,17.94-6.96,4.16-16.41,6.24-28.37,6.24Zm0-24.76c3.64,0,6.3-.91,7.99-2.73,1.69-1.82,2.79-4.16,3.32-7.02.52-2.86.78-5.78.78-8.78v-76.05c0-3.12-.26-6.08-.78-8.87-.52-2.79-1.63-5.1-3.32-6.92-1.69-1.82-4.36-2.73-7.99-2.73-3.38,0-5.92.91-7.61,2.73-1.69,1.82-2.8,4.13-3.32,6.92-.52,2.8-.78,5.75-.78,8.87v76.05c0,2.99.23,5.92.68,8.78.45,2.86,1.49,5.2,3.12,7.02,1.62,1.82,4.26,2.73,7.9,2.73Z"/>
    <path class="cls-16" d="m1484.25,880.94v-157.95h43.48c10.66,0,19.89,1.17,27.69,3.51,7.8,2.34,13.88,6.53,18.23,12.58,4.35,6.04,6.53,14.59,6.53,25.64,0,6.5-.52,12.29-1.56,17.35-1.04,5.07-2.96,9.46-5.75,13.16-2.8,3.71-6.79,6.79-11.99,9.26l21.65,76.44h-36.08l-17.36-70.79h-9.94v70.79h-34.91Zm34.91-90.87h9.75c4.94,0,8.77-.88,11.5-2.63,2.73-1.75,4.65-4.29,5.75-7.6,1.1-3.32,1.66-7.31,1.66-11.99,0-6.76-1.24-12.02-3.7-15.79-2.47-3.77-7.02-5.66-13.65-5.66h-11.31v43.68Z"/>
    <path class="cls-16" d="m1613.92,880.94v-132.01h-23.79v-25.94h82.49v25.94h-23.59v132.01h-35.1Z"/>
    <path class="cls-16" d="m1732.09,883.28c-12.09,0-21.55-1.98-28.37-5.95-6.82-3.96-11.6-9.75-14.33-17.36-2.73-7.6-4.09-16.93-4.09-27.98v-109h34.51v114.27c0,3.25.26,6.5.78,9.75.52,3.25,1.66,5.92,3.41,8,1.75,2.08,4.45,3.12,8.09,3.12s6.5-1.04,8.19-3.12c1.69-2.08,2.76-4.74,3.22-8,.45-3.25.68-6.5.68-9.75v-114.27h34.71v109c0,11.05-1.4,20.38-4.19,27.98-2.8,7.61-7.57,13.39-14.33,17.36-6.76,3.96-16.19,5.95-28.28,5.95Z"/>
    <path class="cls-16" d="m1801.12,880.94v-157.95h24.57l32.37,76.05v-76.05h28.86v157.95h-23.59l-32.37-81.9v81.9h-29.83Z"/>
    <path class="cls-16" d="m1902.9,880.94l29.83-157.95h39.78l29.45,157.95h-32.17l-5.27-33.34h-23.21l-5.46,33.34h-32.96Zm41.54-54.21h16.77l-8.39-61.62-8.38,61.62Z"/>
  </g>
  <g>
    <path class="cls-1" d="m350.43,14.19c-37.41,18.03-69.06,50.88-83.52,84.74l225.28,467.46c2.09,1.5,22.67,47.03,22.67,47.03,0,0,153.43-193.27,194.16-241.53,150.53-178.28,10.22-330.24-126.98-264.12-14.16,6.83-28.29,15.97-42.07,27.65C501.19-3.11,416.76-17.78,350.43,14.19h0Z"/>
    <g>
      <path class="cls-6" d="m25.3,394.33c1.91-.18,4.08-.39,4.58-7.32.51-7.29-1.42-17.86-3.48-29.05-.52-2.8-1.03-5.61-1.53-8.46-.39.38-.79.76-1.2,1.08-.22.18-.43.37-.65.53-9.19,7.32-17.16,6.7-22.26,4.87-.27-.1-.51-.24-.77-.32.79,16.24,3.11,32.55,6.51,48.54,4.39-5.27,10.43-9.1,18.79-9.88Z"/>
      <path class="cls-7" d="m347.98,510.61c-12.95,15.44-38.28,23.04-58.9,17.68-3.94-1.04-7.6-2.5-10.98-4.33-2.85,2.91-6.72,6.23-11.56,9.03,1.94,8.26,2.86,21.71-6.03,34.69,10.08,5.44,22.92,15.39,28.56,32.37,1.14,3.44.03,6.86-2.52,8.89-.99.79-2.21,1.38-3.59,1.67-4.96,1.04-10.26-1.96-11.86-6.74-6.34-19.1-27.53-24.73-27.73-24.77l-17.63-4.51,12.61-10.84c16.94-14.53,8.58-32.49,8.48-32.68l-3.92-8.13,8.24-3.15c5.45-2.07,9.68-5.55,12.5-8.41-3.58-4.81-6.35-10.48-8.15-16.88l-.12-.51c-.05-.2-5.45-23.41-23.19-34.42-4.52-2.81-6.09-8.33-3.51-12.35,2.59-4.03,8.34-5,12.86-2.19,24.12,14.97,31.4,43.14,32.22,46.61,3.03,10.53,9.34,17.12,18.78,19.58,13.52,3.51,31.59-2.04,40.24-12.37,8.98-10.71,19.4-15.75,28.21-18.06l-60.32-65.14c-1.36-.02-2.77-.33-4.12-.95-6.1-2.81-9.78-.54-18.65,11.54-5.48,7.45-11.14,15.14-21.01,14.29-4.17-.35-9.87-1.76-17.06-3.52-9.79-2.44-35.79-8.89-40.01-4.42-1.89,1.97-2.33,2.45,2.14,9.95,2.8,4.72,6.29,10.57,6.33,17.38.08,14.53-15.69,20.84-25.04,22.28-5.03.81-10.18-2.49-11.47-7.32-1.3-4.83,1.72-9.36,6.73-10.17,3.93-.64,10.96-3.32,10.92-6.32,0-2.06-1.9-5.23-3.72-8.3-4.18-7.01-11.16-18.73-.44-29.99,11.19-11.71,37.01-5.36,57.75-.23,4.9,1.2,9.97,2.46,12.84,2.89,1.58-1.27,4.34-4.95,6.2-7.49,4.64-6.31,11.29-15.32,21.19-18.43l-53.12-57.35c-19.51.47-37.86,5.23-37.73,10.14.08,2.96.32,6.07.59,9.35,1.36,16.66,3.25,39.49-23,51.29-27.16,12.19-32.84,23.52-21.75,43.26,11.03,19.64,22.29,58.72,8.18,86.03-3.09,5.95-7.23,11.01-12.34,15.08-5.26,4.17-11.54,7.32-18.75,9.37,20.17,10.96,41.31,20.55,61.55,28.72-2.96-6.75-4.23-14.15-4.74-22.35-.73-11.69,4.89-19.57,9.83-26.53,5.6-7.88,10.43-14.68,8.99-27.79-3.73-33.93,10.88-40.32,13.85-41.24,4.78-1.52,10.32,1.03,12.37,5.69,1.93,4.37.09,9.03-4.06,10.85h-.02c-1.68,1.34-5.21,7.95-3.38,24.5,2.11,19.21-5.58,30.05-11.77,38.75-4.69,6.61-7.34,10.62-6.98,16.38,1.07,17.51,5.02,25.36,25.03,34.52,1.63.74,2.96,1.88,3.95,3.18,6.28,2.12,12.58,4.19,18.88,6.18-.21-.39-.4-.73-.54-1-2.4-4.51-.64-9.7,3.98-11.57,4.62-1.85,10.31.29,12.72,4.81,2.54,4.75,6.67,10.94,11.02,15.87,8.81,2.5,17.51,4.84,26.05,7,6.85-2.07,13.79-5.66,18.27-9.55,3.6-3.25,9.61-2.71,13.33,1.02,3.72,3.73,3.79,9.33.14,12.49-.47.44-.99.85-1.51,1.27-.63.49-1.31,1-2,1.51,33.98,7.55,63.67,12.11,83.57,13.16,4.86.25,9.38.19,13.61-.17-6.01-1.2-13.24-2.81-21.91-4.96-29.15-7.24-32.24-24.08-34.27-35.2-.73-3.98-1.37-7.48-2.9-10.07-3.74,1.37-10.97,7.92-16,14.64l-5.35,7.13-60.04-44.67,24.46-.62c5.98-.16,14.27-17.76,17.41-32.82l1.88-9.05,9.13,2.96c4.86-.34,19.63-9.64,31.43-19.89,3.69-3.17,9.63-2.69,13.33,1.05,3.71,3.72,3.75,9.32.11,12.49-11.57,10.02-26.51,20.97-38.83,23.49-2.5,9.41-7.55,23.85-16.45,32.42l12.88,9.58c6.35-6.85,16.33-15.3,26.54-14.67,5.6.34,10.63,3.19,14.15,8.01,4.55,6.22,5.75,12.79,6.81,18.59,1.83,10.02,2.84,15.53,18.92,19.53,31.04,7.7,42.1,7.89,42.21,7.9,2.27.02,4.4.83,6.16,2.11,7.97-8.2,10.76-19.4,11.45-29.03l-11.68-24.24-81.22-87.71c-5.85.14-17.77,2.06-27.71,13.91Zm67.9,68.15l2.87.29,2.34,1.71c5.86,4.27,14.32,16.11,8.94,33.49-.47,1.55-1.4,2.84-2.6,3.8-2.33,1.86-5.72,2.47-9.02,1.3-5.01-1.75-7.93-6.88-6.52-11.44,1.93-6.25.66-10.14-.41-12.05-8.57-1.48-15.32-4.76-20.1-9.81-.95-1-1.76-2.01-2.46-3.01-12.04,1.27-26.44-3.58-31.66-5.55-4.97-1.86-7.76-7.06-6.21-11.58,1.54-4.52,6.81-6.68,11.79-4.81,10.12,3.8,22.47,5.59,24.91,3.65l18.62-14.81-2.7,22.63c.35,2.5,3.72,5.38,12.22,6.21Z"/>
      <path class="cls-9" d="m72.46,264.7c5.86-27.1,28.75-38.94,48.64-42.92l-14.16-15.29-.77-1.33c-.19-.34-.38-.7-.56-1.03-9.72-3.91-27.73-7.5-46.68,7.59l-.19.14c-9.89,7.95-18.32,16.52-25.45,25.58,1.83,5.17,5.46,11.94,12.53,15.82,9.06,4.97,19.3,8.9,26.65,11.44Z"/>
      <path class="cls-5" d="m35.67,476.5c6.64-4.99,13.09-12.32,13.44-15.14-.2-1.46-1.1-4.16-1.89-6.53-2.54-7.58-5.68-16.99-.72-24.03,1.89-2.7,5.74-6,13.31-6.4,2.48-.15,4.78-.03,6.92.27.6-16.43,10.92-28.68,19.84-39.24,2.84-3.39,5.78-6.88,8.34-10.37,5.55-7.55,13.25-12,22.25-12.87,2.05-.22,4.11-.23,6.11-.09-2.37-9.52-.69-19.43,1.31-31.07.36-2.08.73-4.24,1.09-6.53,3.75-23.05,30.01-44.17,41.82-52.6l-31.4-33.91c-12.13.8-44.61,6.05-46.16,39.56-1.11,23.58,2.05,36.9,4.59,47.61,2.68,11.32,5,21.07.68,35.44-7.03,23.33-16.73,32.63-19.95,35.18-.47.38-.8.61-.97.73l-11.79-14.78-.18.1c.08-.04,8.36-6.42,14.7-27.48,3.08-10.21,1.6-16.48-.87-26.87-2.38-10.06-5.55-23.47-5.25-45.02-3.59-1.19-8.12-2.77-13.12-4.71-3.21,11.53-9.17,30.99-16.96,47.5.2,9.67,2.19,20.63,4.15,31.26,2.26,12.29,4.4,23.88,3.71,33.27-1.2,16.9-11.44,21.39-19.82,22.17-8.63.84-12.63,12.94-14.09,24.44,3.71,12.39,7.91,24.41,12.31,35.83,1.55,4.03,3.44,7.98,5.58,11.88-.46-2.88.56-5.76,3-7.61Z"/>
      <path class="cls-4" d="m139.31,530.68c11.09-21.42,1.24-54.29-7.57-69.98-24.01-42.76,14.42-60.03,28.89-66.54,15.1-6.77,14.98-17.89,13.56-35.41-.27-3.36-.56-6.85-.65-10.26-.48-17.91,22.9-23.89,40.96-25.85l-34.05-36.77c-11.89,8.46-33.5,26.78-36.12,42.85-.38,2.33-.76,4.54-1.12,6.65-3.51,20.61-4.58,26.82,8.34,37.81l-11.35,13.11c-2.82-2.04-11.9-7.24-19.48-6.47-3.96.4-7.22,2.43-9.99,6.19-2.87,3.92-5.99,7.61-9,11.17-11.81,14.01-20.78,24.66-13.74,42.29.36.73.65,1.42.89,2.08,1.01,2.19,2.21,4.46,3.71,6.88,10.48,16.87,11.32,26.29,11.93,33.15.63,7.04,1.04,11.66,18.19,27.75,3.85,3.6,4.14,9.23.63,12.5-.16.17-.34.32-.51.47-3.55,2.82-9.13,2.44-12.8-1-5.87-5.48-10.26-10.11-13.59-14.17-1.08,2.47-2.08,5.32-2.74,7.96-.41,1.77-1.39,3.21-2.72,4.26-2.2,1.75-5.35,2.41-8.53,1.46-5.08-1.51-8.28-6.51-7.13-11.15,1.31-5.41,4.66-15.99,11.21-21.95-.38-2.04-.61-4.09-.81-6.26-.52-5.93-1.07-12.06-9.2-25.15-2.35-3.8-4.21-7.43-5.66-10.89-.94-1.78-3.12-3.58-8.15-3.34.23,2.28,1.61,6.45,2.42,8.87,1.21,3.63,2.36,7.06,2.73,10.34,1.23,11.17-11.04,22.65-17.95,28.13-.58.49-1.14.91-1.64,1.28-3.46,2.64-8.58,2.25-12.12-.68,14.72,23.29,39.15,43.77,67.29,61.33,1.32-1.33,3.13-2.26,5.27-2.48,15.03-1.51,25.02-7.46,30.56-18.19Z"/>
      <path class="cls-8" d="m10.48,336.85c11.02-9.18,23.18-43.43,29.58-67.1-.86-.44-1.75-.91-2.61-1.37-6.98-3.85-11.99-8.94-15.61-14.15C8.58,276.93,2.04,302.03.23,327.9c.17.43.35.86.46,1.31,1.12,4.54,3.79,9.31,5.3,10.24.41-.07,1.9-.43,4.5-2.6Z"/>
      <path class="cls-2" d="m269.27,298.27c-3.46-.74-6.73-1.45-9.88-1.97-5.22-.87-13.06,15.24-16.52,33.06l53.13,57.37c4.79-8.62,15.41-13.35,22.84-16.65,2.99-1.33,7.32-3.3,8.91-4.55-.02-2.7-.59-7.52-1.14-12.21-1.55-13.15-3.33-28.43-.21-39.7l-9.07-18.83c-15.31,10.5-33.82,6.51-48.07,3.48Z"/>
      <path class="cls-3" d="m346.54,369.15c-.59,9.18-9.64,13.2-18.41,17.1-14.22,6.31-17.19,9.32-15.13,15.35.45,1.33.57,2.66.39,3.92l60.32,65.14c3.27-6.67,8.91-14.12,18.6-20.28l-46.98-97.48s.01.05.01.07c.81,6.88,1.45,12.3,1.19,16.18Z"/>
      <path class="cls-15" d="m388.43,486.54l44.44,47.99-15.87-32.93c-2.58-.25-5.13-1.47-6.97-3.59-3.05-3.53-3.06-8.3-.23-11.34l-9.18-19.05c-8.63,6.72-11.34,14.58-12.19,18.93Z"/>
      <path class="cls-14" d="m119.68,196.34l14.17,15.3c7.24-17.65,23.31-36.84,53.1-38.1-1.6-7.13-4.24-17.12-8.18-26.16-3.07-7.06-9.74-11.42-14.97-13.87-10.75,5.18-21.16,11.6-31.12,19.47l-.19.16c-18.95,15.07-17.84,32.15-15.14,41.62.35.22.71.46,1.03.68l1.3.91Z"/>
      <path class="cls-13" d="m248.04,202.88c-11.03-3.94-24.76-8.85-50.06-11.4-35.96-3.63-46.45,25.36-49.13,36.36l31.39,33.9c10.78-9.55,37.25-30.43,62.38-30.39,2.5.01,4.87,0,7.12-.03,12.73-.05,23.53-.1,33.34,3.52.14-1.88.47-3.75.99-5.61.2-.67.45-1.34.69-1.99l-8.65-17.95c-10.79-.24-18.95-3.14-28.08-6.41Z"/>
      <path class="cls-10" d="m206.1,174.77c23.03,2.98,36.86,7.92,47.19,11.62,5.3,1.89,9.56,3.41,13.88,4.31l-17.15-35.58c-17.15,3.74-35.56,5.86-46.97,6.93,1.34,4.88,2.34,9.28,3.05,12.73Z"/>
      <path class="cls-12" d="m251.58,249.07c-2.3,0-4.71.03-7.26.02-17.52-.03-40.31,17.02-51.12,26.64l34.06,36.78c4.81-16.27,14.71-36.78,33.71-33.66,3.64.6,7.3,1.38,10.85,2.15,16.72,3.58,27.97,5.32,37-3.86l-9.37-19.45-8.81,4.73c-9.78-13.49-16.57-13.47-39.06-13.36Z"/>
      <path class="cls-11" d="m183.42,125.55c5.01,4.1,9.68,9.47,12.71,16.43.38.87.74,1.74,1.08,2.62,13.45-1.2,30.09-3.35,44.67-6.35l-10.5-21.78c-16.34,1.02-32.42,3.88-47.98,9.07Z"/>
    </g>
  </g>
</svg>